<?xml version="1.0"?>
<svg xmlns="http://www.w3.org/2000/svg" viewBox="0 0 50 50" enable-background="new 0 0 50 50">
    <path style="text-indent:0;text-align:start;line-height:normal;text-transform:none;block-progression:tb;-inkscape-font-specification:Bitstream Vera Sans" d="M 25 7 C 15.060993 7 7 15.060993 7 25 C 7 34.939007 15.060993 43 25 43 C 34.939007 43 43 34.939007 43 25 C 43 15.060993 34.939007 7 25 7 z M 25 9 C 33.860993 9 41 16.139007 41 25 C 41 33.860993 33.860993 41 25 41 C 16.139007 41 9 33.860993 9 25 C 9 16.139007 16.139007 9 25 9 z M 24 14 L 24 16.1875 C 22.4 16.3875 19.5 17.7875 19.5 21.1875 C 19.5 27.5875 28.8125 24.29375 28.8125 29.09375 C 28.8125 30.69375 28.1 32.1875 25 32.1875 C 21.9 32.1875 21 29.8 21 28.5 L 19 28.5 C 19.3 32.8 22.3 33.79375 24 34.09375 L 24 36 L 26 36 L 26 34.09375 C 27.5 33.99375 31 32.90625 31 28.90625 C 31 25.60625 28.2875 24.69375 25.6875 24.09375 C 23.5875 23.59375 21.6875 23.1 21.6875 21 C 21.6875 20.1 22.09375 18.09375 25.09375 18.09375 C 27.19375 18.09375 28.2 19.4 28.5 21 L 30.5 21 C 29.9 18.8 28.9 16.8125 26 16.3125 L 26 14 L 24 14 z" overflow="visible" enable-background="accumulate" font-family="Bitstream Vera Sans"/>
</svg>
