<svg xmlns="http://www.w3.org/2000/svg" xmlns:xlink="http://www.w3.org/1999/xlink" viewBox="0 0 86.13 78.95"><defs><clipPath id="clip-path"><rect x="49.23" y="75.03" width="19.34" height="3.92" style="fill:none"/></clipPath><clipPath id="clip-path-2"><rect x="16.94" y="75.03" width="19.34" height="3.92" style="fill:none"/></clipPath><radialGradient id="Degradado_sin_nombre" cx="-831.44" cy="582.19" r="1" gradientTransform="matrix(-0.36, 60.61, 82.59, 0.49, -48329.66, 50128.59)" gradientUnits="userSpaceOnUse"><stop offset="0" stop-color="#f9fafb"/><stop offset="0.74" stop-color="#cfdadf"/><stop offset="1" stop-color="#f1f3f5"/></radialGradient></defs><g id="Capa_2" data-name="Capa 2"><g id="svg3959"><g style="clip-path:url(#clip-path)"><g id="g4893"><path id="path4895" d="M68.57,77c0,1.08-4.33,2-9.67,2s-9.67-.88-9.67-2,4.33-2,9.67-2,9.67.88,9.67,2" style="fill:#2b5860"/></g></g><g style="clip-path:url(#clip-path-2)"><g id="g4905"><path id="path4907" d="M36.28,77c0,1.08-4.33,2-9.67,2s-9.67-.88-9.67-2,4.33-2,9.67-2,9.67.88,9.67,2" style="fill:#2b5860"/></g></g><g id="g4917"><g id="g4919"><path id="path4931" d="M43.77,2.58a38.87,38.87,0,0,0-18.62,7.88h0A29,29,0,0,0,14.2,27.63h0a55.84,55.84,0,0,0-.72,6.47h0c-.68,9-1.62,14.44-9,14.44h0a2.26,2.26,0,0,0-2,1.25h0a2.26,2.26,0,0,0,.21,2.37h0c9.92,13.16,27,14.68,38.9,14.68h3.87c5.58,0,11.47-.27,16.72-2.22h0c9.33-3.48,17.19-11.3,20-19.93h0A30.12,30.12,0,0,0,78,17h0A36.76,36.76,0,0,0,48.63,2.26h0a37.66,37.66,0,0,0-4.86.32" style="fill:url(#Degradado_sin_nombre)"/></g></g><path d="M85.69,29.37a32.66,32.66,0,0,0-5.82-13.73A37.59,37.59,0,0,0,66.34,4.23,39.5,39.5,0,0,0,48.63,0a38.67,38.67,0,0,0-5.16.35A41.11,41.11,0,0,0,23.75,8.69,31.23,31.23,0,0,0,12,27.2a60.17,60.17,0,0,0-.77,6.73c-.26,3.55-.54,7.22-1.67,9.62-.77,1.64-1.92,2.73-5,2.73A4.52,4.52,0,0,0,.91,53.52,36,36,0,0,0,18.05,65.74a8.92,8.92,0,0,0-.43,3.62A9.06,9.06,0,0,0,35.7,69c2.06.11,4,.14,5.91.14h3.87c1.06,0,2.14,0,3.21,0,0,.1,0,.2,0,.3a9.06,9.06,0,1,0,18.06-1.55,8.74,8.74,0,0,0-.57-2.46,38.53,38.53,0,0,0,9.62-6.75,32.76,32.76,0,0,0,8.56-13.2A33.12,33.12,0,0,0,85.69,29.37ZM80.08,44c-2.57,7.83-9.34,14.28-16.57,17.62a9,9,0,0,0-13.86,2.9c-1.47.06-2.88.08-4.17.08H41.61c-2.18,0-4.52,0-6.93-.21a9,9,0,0,0-14.07-2.53A32,32,0,0,1,4.52,50.8c12.77,0,10.25-14.27,11.9-22.74C18.94,15.17,31.69,6.49,44.08,4.82a34.88,34.88,0,0,1,4.55-.3h0C69,4.52,87.09,22.68,80.08,44Z" style="fill:#3d3d3d"/><path id="path4967" d="M29.3,68.49a2.76,2.76,0,0,1-2.54,2.93,3,3,0,0,1,0-5.87,2.77,2.77,0,0,1,2.54,2.94" style="fill:#515252"/><path id="path4991" d="M60.38,68.49a2.57,2.57,0,1,1-2.54-2.94,2.76,2.76,0,0,1,2.54,2.94" style="fill:#515252"/><path id="path5003" d="M41,27a4.34,4.34,0,1,1-4.33-4.33A4.33,4.33,0,0,1,41,27" style="fill:#3d3d3d"/><path id="path5015" d="M61.72,26.33A4.34,4.34,0,1,1,57.39,22a4.33,4.33,0,0,1,4.33,4.33" style="fill:#3d3d3d"/><path id="path5027" d="M47.1,50.27A16.68,16.68,0,0,1,37,46.86a12.87,12.87,0,0,1-5.15-8.49,2.26,2.26,0,0,1,4.49-.52c.55,4.81,6.3,8,11.14,7.89,6.16-.16,10.23-3.84,11.07-7.4a2.25,2.25,0,1,1,4.39,1A13.31,13.31,0,0,1,57.63,47a17.76,17.76,0,0,1-10.09,3.31H47.1" style="fill:#3d3d3d"/></g></g></svg>