<svg xmlns="http://www.w3.org/2000/svg" viewBox="0 0 31.84 32"><g id="Capa_2" data-name="Capa 2"><g id="Capa_1-2" data-name="Capa 1"><path d="M27.2,4.65A15.86,15.86,0,0,0,2.25,23.78L0,32l8.41-2.21A15.73,15.73,0,0,0,16,31.73h0A15.87,15.87,0,0,0,27.2,4.65ZM16,29.05h0a13.15,13.15,0,0,1-6.71-1.84l-.49-.29-5,1.31,1.33-4.86-.31-.5a13.06,13.06,0,0,1-2-7A13.18,13.18,0,1,1,16,29.05Zm7.22-9.88c-.39-.2-2.34-1.15-2.7-1.28s-.63-.2-.9.2-1,1.29-1.25,1.55-.46.3-.86.1a11.07,11.07,0,0,1-3.19-2A12.23,12.23,0,0,1,12.11,15c-.23-.39,0-.61.17-.81s.4-.46.6-.69a2.45,2.45,0,0,0,.39-.66.75.75,0,0,0,0-.7C13.14,12,12.35,10,12,9.23s-.65-.67-.89-.68h-.76A1.5,1.5,0,0,0,9.31,9a4.48,4.48,0,0,0-1.38,3.31,7.72,7.72,0,0,0,1.62,4.1c.2.26,2.79,4.27,6.77,6,.94.4,1.68.65,2.25.83a5.5,5.5,0,0,0,2.5.16,4.07,4.07,0,0,0,2.67-1.88A3.29,3.29,0,0,0,24,19.65c-.09-.18-.36-.28-.76-.48Z"/></g></g></svg>